<svg width="17" height="24" viewBox="0 0 17 24" fill="none" xmlns="http://www.w3.org/2000/svg">
<rect x="5" y="22.5" width="1.5" height="1.5" fill="#F23CFF"/>
<rect x="5" y="21" width="1.5" height="1.5" fill="#F23CFF"/>
<rect x="6.5" y="21" width="1.5" height="1.5" fill="#F23CFF"/>
<rect x="6.5" y="19.5" width="1.5" height="1.5" fill="#F23CFF"/>
<rect x="7.99902" y="19.5" width="1.5" height="1.5" fill="#F23CFF"/>
<rect x="6.5" y="18" width="1.5" height="1.5" fill="#F23CFF"/>
<rect x="7.99902" y="18" width="1.5" height="1.5" fill="#F23CFF"/>
<rect x="9.5" y="18" width="1.5" height="1.5" fill="#F23CFF"/>
<rect x="7.99902" y="16.5" width="1.5" height="1.5" fill="#F23CFF"/>
<rect x="9.5" y="16.5" width="1.5" height="1.5" fill="#F23CFF"/>
<rect x="11" y="16.5" width="1.5" height="1.5" fill="#F23CFF"/>
<rect x="6.5" y="16.5" width="1.5" height="1.5" fill="#F23CFF"/>
<rect x="9.5" y="15" width="1.5" height="1.5" fill="#F23CFF"/>
<rect x="11" y="15" width="1.5" height="1.5" fill="#F23CFF"/>
<rect x="12.499" y="15" width="1.5" height="1.5" fill="#F23CFF"/>
<rect x="7.99902" y="15" width="1.5" height="1.5" fill="#F23CFF"/>
<rect x="9.5" y="13.5" width="1.5" height="1.5" fill="#F23CFF"/>
<rect x="11" y="13.5" width="1.5" height="1.5" fill="#F23CFF"/>
<rect x="12.499" y="13.5" width="1.5" height="1.5" fill="#F23CFF"/>
<rect x="14" y="13.5" width="1.5" height="1.5" fill="#F23CFF"/>
<rect x="7.99902" y="13.5" width="1.5" height="1.5" fill="#F23CFF"/>
<rect x="9.5" y="12" width="1.5" height="1.5" fill="#F23CFF"/>
<rect x="11" y="12" width="1.5" height="1.5" fill="#F23CFF"/>
<rect x="12.499" y="12" width="1.5" height="1.5" fill="#F23CFF"/>
<rect x="14" y="12" width="1.5" height="1.5" fill="#F23CFF"/>
<rect x="15.5" y="12" width="1.5" height="1.5" fill="#F23CFF"/>
<rect x="7.99902" y="12" width="1.5" height="1.5" fill="#F23CFF"/>
<rect x="12.499" y="1.5" width="1.5" height="1.5" transform="rotate(180 12.499 1.5)" fill="#F23CFF"/>
<rect x="12.499" y="3" width="1.5" height="1.5" transform="rotate(180 12.499 3)" fill="#F23CFF"/>
<rect x="11" y="3" width="1.5" height="1.5" transform="rotate(180 11 3)" fill="#F23CFF"/>
<rect x="11" y="4.5" width="1.5" height="1.5" transform="rotate(180 11 4.5)" fill="#F23CFF"/>
<rect x="9.5" y="4.5" width="1.5" height="1.5" transform="rotate(180 9.5 4.5)" fill="#F23CFF"/>
<rect x="11" y="6" width="1.5" height="1.5" transform="rotate(180 11 6)" fill="#F23CFF"/>
<rect x="9.5" y="6" width="1.5" height="1.5" transform="rotate(180 9.5 6)" fill="#F23CFF"/>
<rect x="7.99902" y="6" width="1.5" height="1.5" transform="rotate(180 7.99902 6)" fill="#F23CFF"/>
<rect x="9.5" y="7.5" width="1.5" height="1.5" transform="rotate(180 9.5 7.5)" fill="#F23CFF"/>
<rect x="7.99902" y="7.5" width="1.5" height="1.5" transform="rotate(180 7.99902 7.5)" fill="#F23CFF"/>
<rect x="6.5" y="7.5" width="1.5" height="1.5" transform="rotate(180 6.5 7.5)" fill="#F23CFF"/>
<rect x="11" y="7.5" width="1.5" height="1.5" transform="rotate(180 11 7.5)" fill="#F23CFF"/>
<rect x="7.99902" y="9" width="1.5" height="1.5" transform="rotate(180 7.99902 9)" fill="#F23CFF"/>
<rect x="6.5" y="9" width="1.5" height="1.5" transform="rotate(180 6.5 9)" fill="#F23CFF"/>
<rect x="5" y="9" width="1.5" height="1.5" transform="rotate(180 5 9)" fill="#F23CFF"/>
<rect x="9.5" y="9" width="1.5" height="1.5" transform="rotate(180 9.5 9)" fill="#F23CFF"/>
<rect x="7.99902" y="10.5" width="1.5" height="1.5" transform="rotate(180 7.99902 10.5)" fill="#F23CFF"/>
<rect x="6.5" y="10.5" width="1.5" height="1.5" transform="rotate(180 6.5 10.5)" fill="#F23CFF"/>
<rect x="5" y="10.5" width="1.5" height="1.5" transform="rotate(180 5 10.5)" fill="#F23CFF"/>
<rect x="3.49902" y="10.5" width="1.5" height="1.5" transform="rotate(180 3.49902 10.5)" fill="#F23CFF"/>
<rect x="9.5" y="10.5" width="1.5" height="1.5" transform="rotate(180 9.5 10.5)" fill="#F23CFF"/>
<rect x="7.99902" y="12" width="1.5" height="1.5" transform="rotate(180 7.99902 12)" fill="#F23CFF"/>
<rect x="6.5" y="12" width="1.5" height="1.5" transform="rotate(180 6.5 12)" fill="#F23CFF"/>
<rect x="5" y="12" width="1.5" height="1.5" transform="rotate(180 5 12)" fill="#F23CFF"/>
<rect x="3.49902" y="12" width="1.5" height="1.5" transform="rotate(180 3.49902 12)" fill="#F23CFF"/>
<rect x="2" y="12" width="1.5" height="1.5" transform="rotate(180 2 12)" fill="#F23CFF"/>
<rect x="9.5" y="12" width="1.5" height="1.5" transform="rotate(180 9.5 12)" fill="#F23CFF"/>
</svg>
