<?xml version="1.0" standalone="no"?>
<!DOCTYPE svg PUBLIC "-//W3C//DTD SVG 20010904//EN"
 "http://www.w3.org/TR/2001/REC-SVG-20010904/DTD/svg10.dtd">
<svg version="1.0" xmlns="http://www.w3.org/2000/svg"
 width="128.000000pt" height="128.000000pt" viewBox="0 0 128.000000 128.000000"
 preserveAspectRatio="xMidYMid meet">
<metadata>
Created by potrace 1.10, written by Peter Selinger 2001-2011
</metadata>
<g transform="translate(0.000000,128.000000) scale(0.100000,-0.100000)"
fill="#000000" stroke="none">
<path d="M799 1238 c-13 -18 -137 -190 -277 -381 -140 -192 -252 -349 -250
-350 13 -7 358 6 358 13 0 6 -10 11 -22 12 -13 0 -27 2 -33 3 -5 2 -65 3 -132
4 l-123 1 47 63 c73 98 105 141 153 208 61 85 117 162 128 175 5 5 22 29 37
52 15 23 30 40 32 38 3 -3 -5 -33 -17 -68 -57 -160 -70 -201 -70 -221 1 -21 1
-21 11 -3 6 10 44 106 84 215 40 108 81 213 89 234 20 46 15 47 -15 5z"/>
<path d="M823 773 c-95 -2 -173 -7 -173 -12 0 -12 88 -21 203 -21 53 0 97 -2
97 -5 0 -2 -28 -43 -62 -91 -35 -47 -72 -98 -83 -114 -11 -15 -47 -65 -80
-110 -91 -125 -98 -134 -130 -180 -16 -23 -31 -38 -32 -33 -2 5 17 67 42 137
43 122 60 198 34 152 -6 -10 -44 -106 -84 -215 -40 -108 -81 -214 -90 -236
-13 -30 -13 -36 -2 -25 19 21 547 748 547 755 0 3 -3 4 -7 3 -5 -1 -86 -4
-180 -5z"/>
</g>
</svg>
