<svg xmlns="http://www.w3.org/2000/svg">
  <symbol id="cross" viewBox="0 0 20 20">
    <path d="M17.1 5.2l-2.6-2.6-4.6 4.7-4.7-4.7-2.5 2.6 4.7 4.7-4.7 4.7 2.5 2.5 4.7-4.7 4.6 4.7 2.6-2.5-4.7-4.7"/>
  </symbol>
  <symbol id="play" viewBox="0 0 15 15">
    <path d="M7.5,0.5c3.9,0,7,3.1,7,7c0,3.9-3.1,7-7,7c-3.9,0-7-3.1-7-7l0,0C0.5,3.6,3.6,0.5,7.5,0.5 C7.5,0.5,7.5,0.5,7.5,0.5L7.5,0.5L7.5,0.5z M6.1,4.7v5.6l4.2-2.8L6.1,4.7z"/>
  </symbol>
  <symbol id="download" viewBox="0 0 100 100">
  <path d="M21.2 93.8h57.7c8.3 0 15-6.7 15-15V21.1c0-8.2-6.7-15-15-15H50c-1.9 0-3.5 1.6-3.5 3.5v48.5l-6.6-6.6a3.38 3.38 0 0 0-4.9 0 3.38 3.38 0 0 0 0 4.9l12.5 12.5c.7.7 1.6 1 2.5 1s1.8-.3 2.5-1L65 56.6c1.4-1.4 1.4-3.6 0-4.9s-3.6-1.4-4.9 0l-6.6 6.6v-45h25.3c4.4 0 8 3.6 8 8V79c0 4.4-3.6 8-8 8H21.2c-4.4 0-8-3.6-8-8V21.1c0-4.4 3.6-8 8-8h7.5c1.9 0 3.5-1.6 3.5-3.5s-1.6-3.5-3.5-3.5h-7.5c-8.3 0-15 6.7-15 15v57.7c0 8.3 6.7 15 15 15z"/>
  </symbol>
</svg>