<?xml version="1.0" encoding="utf-8"?>
<!-- Generator: Adobe Illustrator 21.1.0, SVG Export Plug-In . SVG Version: 6.00 Build 0)  -->
<svg version="1.1" id="Layer_1" xmlns="http://www.w3.org/2000/svg" xmlns:xlink="http://www.w3.org/1999/xlink" x="0px" y="0px"
	 viewBox="0 0 100 100" style="enable-background:new 0 0 100 100;" xml:space="preserve">
<style type="text/css">
	.st0{fill:#FF4D57;}
</style>
<g>
	<path class="st0" d="M50,23.1c-9.3,0-16.9,7.6-16.9,16.9c0,9.3,7.6,16.9,16.9,16.9c9.3,0,16.9-7.6,16.9-16.9S59.3,23.1,50,23.1z"/>
	<path class="st0" d="M50,4C30.2,4,14,20.2,14,40.2c0,9.2,3.5,18,9.8,24.7L44.2,91c2.8,4,8.9,4.1,11.6-0.2L76,65.1L76,65
		c6.4-6.7,10-15.6,10-25C86,20.1,69.8,4,50,4z M50,60.6c-11.4,0-20.6-9.3-20.6-20.6S38.6,19.3,50,19.3c11.4,0,20.6,9.3,20.6,20.6
		S61.4,60.6,50,60.6z"/>
</g>
</svg>
